<?xml version="1.0" encoding="UTF-8"?>
<svg width="314px" height="364px" viewBox="0 0 314 364" version="1.1" xmlns="http://www.w3.org/2000/svg" xmlns:xlink="http://www.w3.org/1999/xlink">
    <!-- Generator: Sketch 42 (36781) - http://www.bohemiancoding.com/sketch -->
    <title>Slice 1</title>
    <desc>Created with Sketch.</desc>
    <defs></defs>
    <g id="Page-1" stroke="none" stroke-width="1" fill="none" fill-rule="evenodd">
        <circle id="Oval" fill="#96E079" cx="157" cy="207" r="157"></circle>
        <path d="M176.976562,194.546875 C180.257829,214.328224 182.953114,228.50777 185.0625,237.085938 C187.171886,245.664105 189.351551,251.218737 191.601562,253.75 C192.914069,255.156257 194.507803,255.859375 196.382812,255.859375 C198.726574,255.859375 200.90624,254.945322 202.921875,253.117188 C204.93751,251.289053 207.539047,247.187532 210.726562,240.8125 L223.523438,246.71875 C218.08591,256.6563 211.921909,264.062476 205.03125,268.9375 C198.140591,273.812524 190.054734,276.25 180.773438,276.25 C175.054659,276.25 170.484392,275.523445 167.0625,274.070312 C163.640608,272.61718 160.734387,270.203142 158.34375,266.828125 C155.953113,263.453108 153.843759,258.695343 152.015625,252.554688 C150.187491,246.414032 148.47657,238.37505 146.882812,228.4375 L145.476562,228.4375 C137.507773,239.875057 131.132836,248.59372 126.351562,254.59375 C121.570289,260.59378 117.468767,265.093735 114.046875,268.09375 C110.624983,271.093765 107.343766,273.203119 104.203125,274.421875 C101.062484,275.640631 97.2890845,276.25 92.8828125,276.25 C90.8203022,276.25 88.3125148,275.99219 85.359375,275.476562 C82.4062352,274.960935 80.179695,274.421878 78.6796875,273.859375 L85.2890625,243.34375 L97.9453125,243.34375 C98.039063,245.31251 98.5312455,246.789058 99.421875,247.773438 C100.312504,248.757817 101.46093,249.25 102.867188,249.25 C104.554696,249.25 106.124993,248.898441 107.578125,248.195312 C109.031257,247.492184 111.046862,245.921887 113.625,243.484375 C116.203138,241.046863 119.460918,237.460961 123.398438,232.726562 C127.335957,227.992164 133.992141,219.671935 143.367188,207.765625 C141.398428,196.70307 139.546884,187.164103 137.8125,179.148438 C136.078116,171.132772 134.50782,165.320331 133.101562,161.710938 C131.695305,158.101544 130.359381,155.687506 129.09375,154.46875 C127.828119,153.249994 126.398445,152.640625 124.804688,152.640625 C122.929678,152.640625 121.28907,153.132808 119.882812,154.117188 C118.476555,155.101567 117.000008,156.695301 115.453125,158.898438 C113.906242,161.101574 112.242196,164.031232 110.460938,167.6875 L97.6640625,161.78125 C103.10159,151.8437 109.218716,144.437524 116.015625,139.5625 C122.812534,134.687476 130.570269,132.25 139.289062,132.25 C146.7891,132.25 152.507793,133.374989 156.445312,135.625 C160.382832,137.875011 163.617175,141.789035 166.148438,147.367188 C168.6797,152.94534 171.070301,161.874939 173.320312,174.15625 L174.726562,174.15625 C181.664097,164.406201 187.054668,157.070337 190.898438,152.148438 C194.742207,147.226538 198.304671,143.289077 201.585938,140.335938 C204.867204,137.382798 208.054672,135.296881 211.148438,134.078125 C214.242203,132.859369 217.898416,132.25 222.117188,132.25 C226.804711,132.25 231.539039,133.093742 236.320312,134.78125 L229.710938,165.15625 L217.054688,165.15625 C216.585935,161.21873 214.851578,159.25 211.851562,159.25 C210.539056,159.25 209.156257,159.578122 207.703125,160.234375 C206.249993,160.890628 204.328137,162.367176 201.9375,164.664062 C199.546863,166.960949 196.57033,170.289041 193.007812,174.648438 C189.445295,179.007834 184.101598,185.64058 176.976562,194.546875 Z" id="ð’™" fill="#FFFFFF"></path>
    </g>
</svg>