<?xml version="1.0" encoding="UTF-8"?>
<svg width="321px" height="321px" viewBox="0 0 321 321" version="1.1" xmlns="http://www.w3.org/2000/svg" xmlns:xlink="http://www.w3.org/1999/xlink">
    <!-- Generator: Sketch 42 (36781) - http://www.bohemiancoding.com/sketch -->
    <title>logo</title>
    <desc>Created with Sketch.</desc>
    <defs>
        <circle id="path-1" cx="160" cy="160" r="160"></circle>
    </defs>
    <g id="Page-1" stroke="none" stroke-width="1" fill="none" fill-rule="evenodd">
        <circle id="Oval" fill="#810D42" cx="159" cy="159" r="157"></circle>
        <g id="ð’™">
            <g>
                <mask id="mask-2" fill="white">
                    <use xlink:href="#path-1"></use>
                </mask>
                <g id="Mask"></g>
                <path d="M189.244385,141.556885 C194.593533,173.804605 198.98741,196.920218 202.426147,210.904419 C205.864885,224.88862 209.418195,233.943827 213.086182,238.070312 C215.225841,240.362804 217.823959,241.509033 220.880615,241.509033 C224.701435,241.509033 228.254744,240.018936 231.540649,237.038696 C234.826555,234.058457 239.067601,227.372122 244.263916,216.979492 L265.125488,226.60791 C256.261186,242.808186 246.212581,254.881796 234.97937,262.829102 C223.74616,270.776407 210.564529,274.75 195.434082,274.75 C186.111282,274.75 178.660794,273.565564 173.082397,271.196655 C167.504,268.827747 162.766255,264.892361 158.869019,259.390381 C154.971782,253.8884 151.533096,246.132252 148.552856,236.121704 C145.572617,226.111156 142.78346,213.00594 140.185303,196.805664 L137.892822,196.805664 C124.902035,215.451265 114.50956,229.664502 106.715088,239.445801 C98.9206153,249.2271 92.2342808,256.562964 86.6558838,261.453613 C81.0774868,266.344263 75.7284192,269.782949 70.6085205,271.769775 C65.4886219,273.756602 59.3371941,274.75 52.1540527,274.75 C48.7917312,274.75 44.7035153,274.329716 39.8892822,273.489136 C35.0750492,272.648555 31.4453247,271.76978 29,270.852783 L39.7746582,221.105957 L60.4069824,221.105957 C60.5598152,224.315446 61.3621754,226.722526 62.8140869,228.327271 C64.2659985,229.932015 66.1381721,230.734375 68.4306641,230.734375 C71.1816544,230.734375 73.7415653,230.161261 76.1104736,229.015015 C78.479382,227.868769 81.7652378,225.308858 85.9681396,221.335205 C90.1710415,217.361552 95.4819015,211.515786 101.900879,203.797729 C108.319856,196.079673 119.170822,182.515966 134.454102,163.106201 C131.244613,145.071931 128.22621,129.521428 125.398804,116.454224 C122.571397,103.38702 120.011486,93.9115284 117.718994,88.0274658 C115.426502,82.1434032 113.248668,78.2080177 111.185425,76.2211914 C109.122182,74.2343651 106.791517,73.2409668 104.193359,73.2409668 C101.136703,73.2409668 98.4621697,74.0433269 96.1696777,75.6480713 C93.8771858,77.2528156 91.4701054,79.8509342 88.9483643,83.4425049 C86.4266231,87.0340756 83.7138817,91.8100288 80.8100586,97.7705078 L59.9484863,88.1420898 C68.8127885,71.9418135 78.7849788,59.8682038 89.8653564,51.9208984 C100.945734,43.9735931 113.592458,40 127.805908,40 C140.032532,40 149.355193,41.833966 155.77417,45.5019531 C162.193147,49.1699402 167.4658,55.5506137 171.592285,64.644165 C175.718771,73.7377164 179.615948,88.2948218 183.283936,108.315918 L185.576416,108.315918 C196.886043,92.4213072 205.673797,80.4623204 211.939941,72.4385986 C218.206086,64.4148769 224.013645,57.9959958 229.362793,53.1817627 C234.711941,48.3675296 239.908178,44.9670509 244.95166,42.9802246 C249.995142,40.9933983 255.955532,40 262.833008,40 C270.474648,40 278.192588,41.3754745 285.987061,44.1264648 L275.212402,93.644043 L254.580078,93.644043 C253.815914,87.2250656 250.98855,84.015625 246.0979,84.015625 C243.958241,84.015625 241.703991,84.5505318 239.335083,85.6203613 C236.966175,86.6901909 233.833149,89.0972713 229.935913,92.8416748 C226.038677,96.5860783 221.186308,102.011561 215.378662,109.118286 C209.571016,116.225011 200.859677,127.037769 189.244385,141.556885 Z" fill="#FFFFFF" mask="url(#mask-2)"></path>
            </g>
        </g>
    </g>
</svg>