<svg xmlns="http://www.w3.org/2000/svg" xmlns:xlink="http://www.w3.org/1999/xlink" width="513" height="513" viewBox="0 0 513 513">
  <defs>
    <circle id="icon-a" cx="256" cy="256" r="256"/>
  </defs>
  <g fill="none" fill-rule="evenodd">
    <circle cx="256" cy="256" r="254.38" fill="#4C3F54"/>
    <mask id="icon-b" fill="#fff">
      <use xlink:href="#icon-a"/>
    </mask>
    <path fill="#FFF" d="M305.00356,227.737737 C313.670534,279.987207 320.789727,317.440353 326.361353,340.098299 C331.932979,362.756245 337.690239,377.427973 343.633307,384.113924 C347.100096,387.828341 351.309706,389.685522 356.262263,389.685522 C362.452958,389.685522 368.210219,387.271187 373.534217,382.442445 C378.858215,377.613702 385.729784,366.780147 394.14913,349.941456 L427.950158,365.54193 C413.587745,391.790479 397.30646,411.352784 379.105815,424.22943 C360.90517,437.106077 339.547591,443.544304 315.032437,443.544304 C299.92714,443.544304 287.855464,441.625217 278.817049,437.786986 C269.778634,433.948755 262.102286,427.572434 255.787777,418.657832 C249.473267,409.743231 243.901725,397.176307 239.072983,380.956685 C234.24424,364.737063 229.7251,343.503296 225.515427,317.254747 L221.801028,317.254747 C200.752664,347.465341 183.914225,370.494383 171.285206,386.342563 C158.656187,402.190744 147.822632,414.076701 138.784217,422.000791 C129.745801,429.924881 121.078958,435.496424 112.783426,438.715585 C104.487894,441.934747 94.5210234,443.544304 82.8825158,443.544304 C77.4347038,443.544304 70.8107589,442.863338 63.0104826,441.501384 C55.2102063,440.139431 49.3291337,438.715593 45.3670886,437.229826 L62.8247627,356.627373 L96.2543513,356.627373 C96.5019791,361.827558 97.8020056,365.727637 100.15447,368.327729 C102.506934,370.927822 105.54033,372.227848 109.254747,372.227848 C113.712048,372.227848 117.859751,371.299258 121.697983,369.442049 C125.536214,367.58484 130.860132,363.437137 137.669897,356.998813 C144.479662,350.56049 153.0846,341.088868 163.484968,328.583663 C173.885337,316.078458 191.466648,294.101819 216.22943,262.653085 C211.029246,233.433003 206.13867,208.23725 201.557555,187.065071 C196.976441,165.892893 192.828737,150.540198 189.11432,141.006527 C185.399902,131.472856 181.871259,125.096535 178.528283,121.877373 C175.185308,118.658212 171.40904,117.048655 167.199367,117.048655 C162.246811,117.048655 157.913389,118.348682 154.198972,120.948774 C150.484554,123.548866 146.584475,127.758476 142.498616,133.577729 C138.412756,139.396983 134.017429,147.135237 129.3125,156.792722 L95.5114715,141.192247 C109.873885,114.943698 126.031358,95.3813935 143.984375,82.5047468 C161.937392,69.6281002 182.428287,63.1898734 205.457674,63.1898734 C225.2679,63.1898734 240.37297,66.1613627 250.773339,72.1044304 C261.173707,78.0474981 269.716739,88.3858045 276.40269,103.11966 C283.088641,117.853515 289.403056,141.439711 295.346123,173.878956 L299.060522,173.878956 C317.384981,148.125662 331.623367,128.749076 341.776108,115.748616 C351.928848,102.748155 361.338564,92.3479425 370.005538,84.5476661 C378.672512,76.7473898 387.091731,71.2377534 395.263449,68.0185918 C403.435167,64.7994301 413.092508,63.1898734 424.235759,63.1898734 C436.617151,63.1898734 449.122168,65.4184904 461.751187,69.8757911 L444.293513,150.106804 L410.863924,150.106804 C409.625785,139.706435 405.044739,134.506329 397.120649,134.506329 C393.653859,134.506329 390.001404,135.373013 386.163172,137.106408 C382.324941,138.839803 377.248647,142.739883 370.934138,148.806764 C364.619628,154.873646 356.757563,163.664302 347.347706,175.178995 C337.937849,186.693689 323.823274,204.213094 305.00356,227.737737 Z" mask="url(#icon-b)"/>
  </g>
</svg>
